<svg class="rich-terminal" viewBox="0 0 1238 782.0" xmlns="http://www.w3.org/2000/svg">
    <!-- Generated with Rich https://www.textualize.io -->
    <style>

    @font-face {
        font-family: "Fira Code";
        src: local("FiraCode-Regular"),
                url("https://cdnjs.cloudflare.com/ajax/libs/firacode/6.2.0/woff2/FiraCode-Regular.woff2") format("woff2"),
                url("https://cdnjs.cloudflare.com/ajax/libs/firacode/6.2.0/woff/FiraCode-Regular.woff") format("woff");
        font-style: normal;
        font-weight: 400;
    }
    @font-face {
        font-family: "Fira Code";
        src: local("FiraCode-Bold"),
                url("https://cdnjs.cloudflare.com/ajax/libs/firacode/6.2.0/woff2/FiraCode-Bold.woff2") format("woff2"),
                url("https://cdnjs.cloudflare.com/ajax/libs/firacode/6.2.0/woff/FiraCode-Bold.woff") format("woff");
        font-style: bold;
        font-weight: 700;
    }

    .terminal-434931138-matrix {
        font-family: Fira Code, monospace;
        font-size: 20px;
        line-height: 24.4px;
        font-variant-east-asian: full-width;
    }

    .terminal-434931138-title {
        font-size: 18px;
        font-weight: bold;
        font-family: arial;
    }

    .terminal-434931138-r1 { fill: #58a6ff }
.terminal-434931138-r2 { fill: #c5c8c6 }
.terminal-434931138-r3 { fill: #121212 }
.terminal-434931138-r4 { fill: #74777b }
.terminal-434931138-r5 { fill: #c9d1d9 }
.terminal-434931138-r6 { fill: #e0e0e0 }
.terminal-434931138-r7 { fill: #58a6ff;font-weight: bold }
.terminal-434931138-r8 { fill: #9d65ff }
.terminal-434931138-r9 { fill: #f4005f }
.terminal-434931138-r10 { fill: #98e024;font-weight: bold }
.terminal-434931138-r11 { fill: #98999b }
.terminal-434931138-r12 { fill: #58d1eb }
.terminal-434931138-r13 { fill: #fd971f }
.terminal-434931138-r14 { fill: #c4c5b5;font-weight: bold }
.terminal-434931138-r15 { fill: #98e024 }
.terminal-434931138-r16 { fill: #e0e0e0;font-weight: bold }
.terminal-434931138-r17 { fill: #0d1117 }
.terminal-434931138-r18 { fill: #0d1117;font-weight: bold }
    </style>

    <defs>
    <clipPath id="terminal-434931138-clip-terminal">
      <rect x="0" y="0" width="1219.0" height="731.0" />
    </clipPath>
    <clipPath id="terminal-434931138-line-0">
    <rect x="0" y="1.5" width="1220" height="24.65"/>
            </clipPath>
<clipPath id="terminal-434931138-line-1">
    <rect x="0" y="25.9" width="1220" height="24.65"/>
            </clipPath>
<clipPath id="terminal-434931138-line-2">
    <rect x="0" y="50.3" width="1220" height="24.65"/>
            </clipPath>
<clipPath id="terminal-434931138-line-3">
    <rect x="0" y="74.7" width="1220" height="24.65"/>
            </clipPath>
<clipPath id="terminal-434931138-line-4">
    <rect x="0" y="99.1" width="1220" height="24.65"/>
            </clipPath>
<clipPath id="terminal-434931138-line-5">
    <rect x="0" y="123.5" width="1220" height="24.65"/>
            </clipPath>
<clipPath id="terminal-434931138-line-6">
    <rect x="0" y="147.9" width="1220" height="24.65"/>
            </clipPath>
<clipPath id="terminal-434931138-line-7">
    <rect x="0" y="172.3" width="1220" height="24.65"/>
            </clipPath>
<clipPath id="terminal-434931138-line-8">
    <rect x="0" y="196.7" width="1220" height="24.65"/>
            </clipPath>
<clipPath id="terminal-434931138-line-9">
    <rect x="0" y="221.1" width="1220" height="24.65"/>
            </clipPath>
<clipPath id="terminal-434931138-line-10">
    <rect x="0" y="245.5" width="1220" height="24.65"/>
            </clipPath>
<clipPath id="terminal-434931138-line-11">
    <rect x="0" y="269.9" width="1220" height="24.65"/>
            </clipPath>
<clipPath id="terminal-434931138-line-12">
    <rect x="0" y="294.3" width="1220" height="24.65"/>
            </clipPath>
<clipPath id="terminal-434931138-line-13">
    <rect x="0" y="318.7" width="1220" height="24.65"/>
            </clipPath>
<clipPath id="terminal-434931138-line-14">
    <rect x="0" y="343.1" width="1220" height="24.65"/>
            </clipPath>
<clipPath id="terminal-434931138-line-15">
    <rect x="0" y="367.5" width="1220" height="24.65"/>
            </clipPath>
<clipPath id="terminal-434931138-line-16">
    <rect x="0" y="391.9" width="1220" height="24.65"/>
            </clipPath>
<clipPath id="terminal-434931138-line-17">
    <rect x="0" y="416.3" width="1220" height="24.65"/>
            </clipPath>
<clipPath id="terminal-434931138-line-18">
    <rect x="0" y="440.7" width="1220" height="24.65"/>
            </clipPath>
<clipPath id="terminal-434931138-line-19">
    <rect x="0" y="465.1" width="1220" height="24.65"/>
            </clipPath>
<clipPath id="terminal-434931138-line-20">
    <rect x="0" y="489.5" width="1220" height="24.65"/>
            </clipPath>
<clipPath id="terminal-434931138-line-21">
    <rect x="0" y="513.9" width="1220" height="24.65"/>
            </clipPath>
<clipPath id="terminal-434931138-line-22">
    <rect x="0" y="538.3" width="1220" height="24.65"/>
            </clipPath>
<clipPath id="terminal-434931138-line-23">
    <rect x="0" y="562.7" width="1220" height="24.65"/>
            </clipPath>
<clipPath id="terminal-434931138-line-24">
    <rect x="0" y="587.1" width="1220" height="24.65"/>
            </clipPath>
<clipPath id="terminal-434931138-line-25">
    <rect x="0" y="611.5" width="1220" height="24.65"/>
            </clipPath>
<clipPath id="terminal-434931138-line-26">
    <rect x="0" y="635.9" width="1220" height="24.65"/>
            </clipPath>
<clipPath id="terminal-434931138-line-27">
    <rect x="0" y="660.3" width="1220" height="24.65"/>
            </clipPath>
<clipPath id="terminal-434931138-line-28">
    <rect x="0" y="684.7" width="1220" height="24.65"/>
            </clipPath>
    </defs>

    <rect fill="#292929" stroke="rgba(255,255,255,0.35)" stroke-width="1" x="1" y="1" width="1236" height="780" rx="8"/><text class="terminal-434931138-title" fill="#c5c8c6" text-anchor="middle" x="618" y="27">MarketPulse</text>
            <g transform="translate(26,22)">
            <circle cx="0" cy="0" r="7" fill="#ff5f57"/>
            <circle cx="22" cy="0" r="7" fill="#febc2e"/>
            <circle cx="44" cy="0" r="7" fill="#28c840"/>
            </g>
        
    <g transform="translate(9, 41)" clip-path="url(#terminal-434931138-clip-terminal)">
    <rect fill="#20242b" x="0" y="1.5" width="12.2" height="24.65" shape-rendering="crispEdges"/><rect fill="#20242b" x="12.2" y="1.5" width="1195.6" height="24.65" shape-rendering="crispEdges"/><rect fill="#20242b" x="1207.8" y="1.5" width="12.2" height="24.65" shape-rendering="crispEdges"/><rect fill="#20242b" x="0" y="25.9" width="12.2" height="24.65" shape-rendering="crispEdges"/><rect fill="#20242b" x="12.2" y="25.9" width="24.4" height="24.65" shape-rendering="crispEdges"/><rect fill="#e0e0e0" x="36.6" y="25.9" width="24.4" height="24.65" shape-rendering="crispEdges"/><rect fill="#20242b" x="61" y="25.9" width="256.2" height="24.65" shape-rendering="crispEdges"/><rect fill="#20242b" x="317.2" y="25.9" width="866.2" height="24.65" shape-rendering="crispEdges"/><rect fill="#20242b" x="1183.4" y="25.9" width="24.4" height="24.65" shape-rendering="crispEdges"/><rect fill="#20242b" x="1207.8" y="25.9" width="12.2" height="24.65" shape-rendering="crispEdges"/><rect fill="#20242b" x="0" y="50.3" width="12.2" height="24.65" shape-rendering="crispEdges"/><rect fill="#20242b" x="12.2" y="50.3" width="1195.6" height="24.65" shape-rendering="crispEdges"/><rect fill="#20242b" x="1207.8" y="50.3" width="12.2" height="24.65" shape-rendering="crispEdges"/><rect fill="#0d1117" x="0" y="74.7" width="12.2" height="24.65" shape-rendering="crispEdges"/><rect fill="#0d1117" x="12.2" y="74.7" width="1195.6" height="24.65" shape-rendering="crispEdges"/><rect fill="#0d1117" x="1207.8" y="74.7" width="12.2" height="24.65" shape-rendering="crispEdges"/><rect fill="#0d1117" x="0" y="99.1" width="353.8" height="24.65" shape-rendering="crispEdges"/><rect fill="#0d1117" x="353.8" y="99.1" width="866.2" height="24.65" shape-rendering="crispEdges"/><rect fill="#0d1117" x="0" y="123.5" width="24.4" height="24.65" shape-rendering="crispEdges"/><rect fill="#0d1117" x="24.4" y="123.5" width="48.8" height="24.65" shape-rendering="crispEdges"/><rect fill="#0d1117" x="73.2" y="123.5" width="97.6" height="24.65" shape-rendering="crispEdges"/><rect fill="#0d1117" x="170.8" y="123.5" width="61" height="24.65" shape-rendering="crispEdges"/><rect fill="#0d1117" x="231.8" y="123.5" width="24.4" height="24.65" shape-rendering="crispEdges"/><rect fill="#0d1117" x="256.2" y="123.5" width="12.2" height="24.65" shape-rendering="crispEdges"/><rect fill="#0d1117" x="268.4" y="123.5" width="24.4" height="24.65" shape-rendering="crispEdges"/><rect fill="#0d1117" x="292.8" y="123.5" width="378.2" height="24.65" shape-rendering="crispEdges"/><rect fill="#0d1117" x="671" y="123.5" width="146.4" height="24.65" shape-rendering="crispEdges"/><rect fill="#0d1117" x="817.4" y="123.5" width="378.2" height="24.65" shape-rendering="crispEdges"/><rect fill="#0d1117" x="1195.6" y="123.5" width="24.4" height="24.65" shape-rendering="crispEdges"/><rect fill="#0d1117" x="0" y="147.9" width="12.2" height="24.65" shape-rendering="crispEdges"/><rect fill="#0d1117" x="12.2" y="147.9" width="12.2" height="24.65" shape-rendering="crispEdges"/><rect fill="#0d1117" x="24.4" y="147.9" width="0" height="24.65" shape-rendering="crispEdges"/><rect fill="#0d1117" x="24.4" y="147.9" width="12.2" height="24.65" shape-rendering="crispEdges"/><rect fill="#0d1117" x="36.6" y="147.9" width="109.8" height="24.65" shape-rendering="crispEdges"/><rect fill="#0d1117" x="146.4" y="147.9" width="12.2" height="24.65" shape-rendering="crispEdges"/><rect fill="#0d1117" x="158.6" y="147.9" width="12.2" height="24.65" shape-rendering="crispEdges"/><rect fill="#0d1117" x="170.8" y="147.9" width="48.8" height="24.65" shape-rendering="crispEdges"/><rect fill="#0d1117" x="219.6" y="147.9" width="12.2" height="24.65" shape-rendering="crispEdges"/><rect fill="#0d1117" x="231.8" y="147.9" width="12.2" height="24.65" shape-rendering="crispEdges"/><rect fill="#0d1117" x="244" y="147.9" width="12.2" height="24.65" shape-rendering="crispEdges"/><rect fill="#0d1117" x="256.2" y="147.9" width="12.2" height="24.65" shape-rendering="crispEdges"/><rect fill="#0d1117" x="268.4" y="147.9" width="12.2" height="24.65" shape-rendering="crispEdges"/><rect fill="#0d1117" x="280.6" y="147.9" width="12.2" height="24.65" shape-rendering="crispEdges"/><rect fill="#0d1117" x="292.8" y="147.9" width="134.2" height="24.65" shape-rendering="crispEdges"/><rect fill="#0d1117" x="427" y="147.9" width="73.2" height="24.65" shape-rendering="crispEdges"/><rect fill="#0d1117" x="500.2" y="147.9" width="366" height="24.65" shape-rendering="crispEdges"/><rect fill="#0d1117" x="866.2" y="147.9" width="329.4" height="24.65" shape-rendering="crispEdges"/><rect fill="#0d1117" x="1195.6" y="147.9" width="12.2" height="24.65" shape-rendering="crispEdges"/><rect fill="#0d1117" x="1207.8" y="147.9" width="12.2" height="24.65" shape-rendering="crispEdges"/><rect fill="#0d1117" x="0" y="172.3" width="12.2" height="24.65" shape-rendering="crispEdges"/><rect fill="#0d1117" x="12.2" y="172.3" width="12.2" height="24.65" shape-rendering="crispEdges"/><rect fill="#0d1117" x="24.4" y="172.3" width="0" height="24.65" shape-rendering="crispEdges"/><rect fill="#0d1117" x="24.4" y="172.3" width="12.2" height="24.65" shape-rendering="crispEdges"/><rect fill="#0d1117" x="36.6" y="172.3" width="109.8" height="24.65" shape-rendering="crispEdges"/><rect fill="#0d1117" x="146.4" y="172.3" width="12.2" height="24.65" shape-rendering="crispEdges"/><rect fill="#0d1117" x="158.6" y="172.3" width="12.2" height="24.65" shape-rendering="crispEdges"/><rect fill="#0d1117" x="170.8" y="172.3" width="48.8" height="24.65" shape-rendering="crispEdges"/><rect fill="#0d1117" x="219.6" y="172.3" width="12.2" height="24.65" shape-rendering="crispEdges"/><rect fill="#0d1117" x="231.8" y="172.3" width="12.2" height="24.65" shape-rendering="crispEdges"/><rect fill="#0d1117" x="244" y="172.3" width="12.2" height="24.65" shape-rendering="crispEdges"/><rect fill="#0d1117" x="256.2" y="172.3" width="12.2" height="24.65" shape-rendering="crispEdges"/><rect fill="#0d1117" x="268.4" y="172.3" width="12.2" height="24.65" shape-rendering="crispEdges"/><rect fill="#0d1117" x="280.6" y="172.3" width="12.2" height="24.65" shape-rendering="crispEdges"/><rect fill="#0d1117" x="292.8" y="172.3" width="134.2" height="24.65" shape-rendering="crispEdges"/><rect fill="#0d1117" x="427" y="172.3" width="146.4" height="24.65" shape-rendering="crispEdges"/><rect fill="#0d1117" x="573.4" y="172.3" width="427" height="24.65" shape-rendering="crispEdges"/><rect fill="#0d1117" x="1000.4" y="172.3" width="195.2" height="24.65" shape-rendering="crispEdges"/><rect fill="#0d1117" x="1195.6" y="172.3" width="12.2" height="24.65" shape-rendering="crispEdges"/><rect fill="#0d1117" x="1207.8" y="172.3" width="12.2" height="24.65" shape-rendering="crispEdges"/><rect fill="#0d1117" x="0" y="196.7" width="12.2" height="24.65" shape-rendering="crispEdges"/><rect fill="#0d1117" x="12.2" y="196.7" width="12.2" height="24.65" shape-rendering="crispEdges"/><rect fill="#0d1117" x="24.4" y="196.7" width="0" height="24.65" shape-rendering="crispEdges"/><rect fill="#0d1117" x="24.4" y="196.7" width="12.2" height="24.65" shape-rendering="crispEdges"/><rect fill="#0d1117" x="36.6" y="196.7" width="109.8" height="24.65" shape-rendering="crispEdges"/><rect fill="#0d1117" x="146.4" y="196.7" width="12.2" height="24.65" shape-rendering="crispEdges"/><rect fill="#0d1117" x="158.6" y="196.7" width="12.2" height="24.65" shape-rendering="crispEdges"/><rect fill="#0d1117" x="170.8" y="196.7" width="48.8" height="24.65" shape-rendering="crispEdges"/><rect fill="#0d1117" x="219.6" y="196.7" width="12.2" height="24.65" shape-rendering="crispEdges"/><rect fill="#0d1117" x="231.8" y="196.7" width="12.2" height="24.65" shape-rendering="crispEdges"/><rect fill="#0d1117" x="244" y="196.7" width="12.2" height="24.65" shape-rendering="crispEdges"/><rect fill="#0d1117" x="256.2" y="196.7" width="12.2" height="24.65" shape-rendering="crispEdges"/><rect fill="#0d1117" x="268.4" y="196.7" width="12.2" height="24.65" shape-rendering="crispEdges"/><rect fill="#0d1117" x="280.6" y="196.7" width="12.2" height="24.65" shape-rendering="crispEdges"/><rect fill="#0d1117" x="292.8" y="196.7" width="134.2" height="24.65" shape-rendering="crispEdges"/><rect fill="#0d1117" x="427" y="196.7" width="170.8" height="24.65" shape-rendering="crispEdges"/><rect fill="#0d1117" x="597.8" y="196.7" width="524.6" height="24.65" shape-rendering="crispEdges"/><rect fill="#0d1117" x="1122.4" y="196.7" width="73.2" height="24.65" shape-rendering="crispEdges"/><rect fill="#0d1117" x="1195.6" y="196.7" width="12.2" height="24.65" shape-rendering="crispEdges"/><rect fill="#0d1117" x="1207.8" y="196.7" width="12.2" height="24.65" shape-rendering="crispEdges"/><rect fill="#0d1117" x="0" y="221.1" width="12.2" height="24.65" shape-rendering="crispEdges"/><rect fill="#0d1117" x="12.2" y="221.1" width="12.2" height="24.65" shape-rendering="crispEdges"/><rect fill="#0d1117" x="24.4" y="221.1" width="0" height="24.65" shape-rendering="crispEdges"/><rect fill="#0d1117" x="24.4" y="221.1" width="12.2" height="24.65" shape-rendering="crispEdges"/><rect fill="#0d1117" x="36.6" y="221.1" width="109.8" height="24.65" shape-rendering="crispEdges"/><rect fill="#0d1117" x="146.4" y="221.1" width="12.2" height="24.65" shape-rendering="crispEdges"/><rect fill="#0d1117" x="158.6" y="221.1" width="12.2" height="24.65" shape-rendering="crispEdges"/><rect fill="#0d1117" x="170.8" y="221.1" width="48.8" height="24.65" shape-rendering="crispEdges"/><rect fill="#0d1117" x="219.6" y="221.1" width="12.2" height="24.65" shape-rendering="crispEdges"/><rect fill="#0d1117" x="231.8" y="221.1" width="12.2" height="24.65" shape-rendering="crispEdges"/><rect fill="#0d1117" x="244" y="221.1" width="12.2" height="24.65" shape-rendering="crispEdges"/><rect fill="#0d1117" x="256.2" y="221.1" width="12.2" height="24.65" shape-rendering="crispEdges"/><rect fill="#0d1117" x="268.4" y="221.1" width="12.2" height="24.65" shape-rendering="crispEdges"/><rect fill="#0d1117" x="280.6" y="221.1" width="12.2" height="24.65" shape-rendering="crispEdges"/><rect fill="#0d1117" x="292.8" y="221.1" width="134.2" height="24.65" shape-rendering="crispEdges"/><rect fill="#0d1117" x="427" y="221.1" width="122" height="24.65" shape-rendering="crispEdges"/><rect fill="#0d1117" x="549" y="221.1" width="390.4" height="24.65" shape-rendering="crispEdges"/><rect fill="#0d1117" x="939.4" y="221.1" width="256.2" height="24.65" shape-rendering="crispEdges"/><rect fill="#0d1117" x="1195.6" y="221.1" width="12.2" height="24.65" shape-rendering="crispEdges"/><rect fill="#0d1117" x="1207.8" y="221.1" width="12.2" height="24.65" shape-rendering="crispEdges"/><rect fill="#0d1117" x="0" y="245.5" width="256.2" height="24.65" shape-rendering="crispEdges"/><rect fill="#0d1117" x="256.2" y="245.5" width="12.2" height="24.65" shape-rendering="crispEdges"/><rect fill="#0d1117" x="268.4" y="245.5" width="12.2" height="24.65" shape-rendering="crispEdges"/><rect fill="#0d1117" x="280.6" y="245.5" width="12.2" height="24.65" shape-rendering="crispEdges"/><rect fill="#0d1117" x="292.8" y="245.5" width="134.2" height="24.65" shape-rendering="crispEdges"/><rect fill="#0d1117" x="427" y="245.5" width="48.8" height="24.65" shape-rendering="crispEdges"/><rect fill="#0d1117" x="475.8" y="245.5" width="378.2" height="24.65" shape-rendering="crispEdges"/><rect fill="#0d1117" x="854" y="245.5" width="341.6" height="24.65" shape-rendering="crispEdges"/><rect fill="#0d1117" x="1195.6" y="245.5" width="12.2" height="24.65" shape-rendering="crispEdges"/><rect fill="#0d1117" x="1207.8" y="245.5" width="12.2" height="24.65" shape-rendering="crispEdges"/><rect fill="#0d1117" x="0" y="269.9" width="268.4" height="24.65" shape-rendering="crispEdges"/><rect fill="#0d1117" x="268.4" y="269.9" width="12.2" height="24.65" shape-rendering="crispEdges"/><rect fill="#0d1117" x="280.6" y="269.9" width="12.2" height="24.65" shape-rendering="crispEdges"/><rect fill="#0d1117" x="292.8" y="269.9" width="134.2" height="24.65" shape-rendering="crispEdges"/><rect fill="#0d1117" x="427" y="269.9" width="134.2" height="24.65" shape-rendering="crispEdges"/><rect fill="#0d1117" x="561.2" y="269.9" width="402.6" height="24.65" shape-rendering="crispEdges"/><rect fill="#0d1117" x="963.8" y="269.9" width="231.8" height="24.65" shape-rendering="crispEdges"/><rect fill="#0d1117" x="1195.6" y="269.9" width="12.2" height="24.65" shape-rendering="crispEdges"/><rect fill="#0d1117" x="1207.8" y="269.9" width="12.2" height="24.65" shape-rendering="crispEdges"/><rect fill="#0d1117" x="0" y="294.3" width="268.4" height="24.65" shape-rendering="crispEdges"/><rect fill="#0d1117" x="268.4" y="294.3" width="12.2" height="24.65" shape-rendering="crispEdges"/><rect fill="#0d1117" x="280.6" y="294.3" width="12.2" height="24.65" shape-rendering="crispEdges"/><rect fill="#0d1117" x="292.8" y="294.3" width="902.8" height="24.65" shape-rendering="crispEdges"/><rect fill="#0d1117" x="1195.6" y="294.3" width="12.2" height="24.65" shape-rendering="crispEdges"/><rect fill="#0d1117" x="1207.8" y="294.3" width="12.2" height="24.65" shape-rendering="crispEdges"/><rect fill="#0d1117" x="0" y="318.7" width="268.4" height="24.65" shape-rendering="crispEdges"/><rect fill="#0d1117" x="268.4" y="318.7" width="12.2" height="24.65" shape-rendering="crispEdges"/><rect fill="#0d1117" x="280.6" y="318.7" width="12.2" height="24.65" shape-rendering="crispEdges"/><rect fill="#0d1117" x="292.8" y="318.7" width="902.8" height="24.65" shape-rendering="crispEdges"/><rect fill="#0d1117" x="1195.6" y="318.7" width="12.2" height="24.65" shape-rendering="crispEdges"/><rect fill="#0d1117" x="1207.8" y="318.7" width="12.2" height="24.65" shape-rendering="crispEdges"/><rect fill="#0d1117" x="0" y="343.1" width="268.4" height="24.65" shape-rendering="crispEdges"/><rect fill="#0d1117" x="268.4" y="343.1" width="12.2" height="24.65" shape-rendering="crispEdges"/><rect fill="#0d1117" x="280.6" y="343.1" width="12.2" height="24.65" shape-rendering="crispEdges"/><rect fill="#0d1117" x="292.8" y="343.1" width="902.8" height="24.65" shape-rendering="crispEdges"/><rect fill="#0d1117" x="1195.6" y="343.1" width="12.2" height="24.65" shape-rendering="crispEdges"/><rect fill="#0d1117" x="1207.8" y="343.1" width="12.2" height="24.65" shape-rendering="crispEdges"/><rect fill="#0d1117" x="0" y="367.5" width="268.4" height="24.65" shape-rendering="crispEdges"/><rect fill="#0d1117" x="268.4" y="367.5" width="12.2" height="24.65" shape-rendering="crispEdges"/><rect fill="#0d1117" x="280.6" y="367.5" width="12.2" height="24.65" shape-rendering="crispEdges"/><rect fill="#0d1117" x="292.8" y="367.5" width="902.8" height="24.65" shape-rendering="crispEdges"/><rect fill="#0d1117" x="1195.6" y="367.5" width="12.2" height="24.65" shape-rendering="crispEdges"/><rect fill="#0d1117" x="1207.8" y="367.5" width="12.2" height="24.65" shape-rendering="crispEdges"/><rect fill="#0d1117" x="0" y="391.9" width="268.4" height="24.65" shape-rendering="crispEdges"/><rect fill="#0d1117" x="268.4" y="391.9" width="12.2" height="24.65" shape-rendering="crispEdges"/><rect fill="#0d1117" x="280.6" y="391.9" width="12.2" height="24.65" shape-rendering="crispEdges"/><rect fill="#0d1117" x="292.8" y="391.9" width="902.8" height="24.65" shape-rendering="crispEdges"/><rect fill="#0d1117" x="1195.6" y="391.9" width="12.2" height="24.65" shape-rendering="crispEdges"/><rect fill="#0d1117" x="1207.8" y="391.9" width="12.2" height="24.65" shape-rendering="crispEdges"/><rect fill="#0d1117" x="0" y="416.3" width="268.4" height="24.65" shape-rendering="crispEdges"/><rect fill="#0d1117" x="268.4" y="416.3" width="12.2" height="24.65" shape-rendering="crispEdges"/><rect fill="#0d1117" x="280.6" y="416.3" width="12.2" height="24.65" shape-rendering="crispEdges"/><rect fill="#0d1117" x="292.8" y="416.3" width="902.8" height="24.65" shape-rendering="crispEdges"/><rect fill="#0d1117" x="1195.6" y="416.3" width="12.2" height="24.65" shape-rendering="crispEdges"/><rect fill="#0d1117" x="1207.8" y="416.3" width="12.2" height="24.65" shape-rendering="crispEdges"/><rect fill="#0d1117" x="0" y="440.7" width="268.4" height="24.65" shape-rendering="crispEdges"/><rect fill="#0d1117" x="268.4" y="440.7" width="12.2" height="24.65" shape-rendering="crispEdges"/><rect fill="#0d1117" x="280.6" y="440.7" width="12.2" height="24.65" shape-rendering="crispEdges"/><rect fill="#0d1117" x="292.8" y="440.7" width="902.8" height="24.65" shape-rendering="crispEdges"/><rect fill="#0d1117" x="1195.6" y="440.7" width="12.2" height="24.65" shape-rendering="crispEdges"/><rect fill="#0d1117" x="1207.8" y="440.7" width="12.2" height="24.65" shape-rendering="crispEdges"/><rect fill="#0d1117" x="0" y="465.1" width="268.4" height="24.65" shape-rendering="crispEdges"/><rect fill="#0d1117" x="268.4" y="465.1" width="12.2" height="24.65" shape-rendering="crispEdges"/><rect fill="#0d1117" x="280.6" y="465.1" width="12.2" height="24.65" shape-rendering="crispEdges"/><rect fill="#0d1117" x="292.8" y="465.1" width="902.8" height="24.65" shape-rendering="crispEdges"/><rect fill="#0d1117" x="1195.6" y="465.1" width="12.2" height="24.65" shape-rendering="crispEdges"/><rect fill="#0d1117" x="1207.8" y="465.1" width="12.2" height="24.65" shape-rendering="crispEdges"/><rect fill="#0d1117" x="0" y="489.5" width="268.4" height="24.65" shape-rendering="crispEdges"/><rect fill="#0d1117" x="268.4" y="489.5" width="12.2" height="24.65" shape-rendering="crispEdges"/><rect fill="#0d1117" x="280.6" y="489.5" width="12.2" height="24.65" shape-rendering="crispEdges"/><rect fill="#0d1117" x="292.8" y="489.5" width="902.8" height="24.65" shape-rendering="crispEdges"/><rect fill="#0d1117" x="1195.6" y="489.5" width="12.2" height="24.65" shape-rendering="crispEdges"/><rect fill="#0d1117" x="1207.8" y="489.5" width="12.2" height="24.65" shape-rendering="crispEdges"/><rect fill="#0d1117" x="0" y="513.9" width="268.4" height="24.65" shape-rendering="crispEdges"/><rect fill="#0d1117" x="268.4" y="513.9" width="12.2" height="24.65" shape-rendering="crispEdges"/><rect fill="#0d1117" x="280.6" y="513.9" width="12.2" height="24.65" shape-rendering="crispEdges"/><rect fill="#0d1117" x="292.8" y="513.9" width="902.8" height="24.65" shape-rendering="crispEdges"/><rect fill="#0d1117" x="1195.6" y="513.9" width="12.2" height="24.65" shape-rendering="crispEdges"/><rect fill="#0d1117" x="1207.8" y="513.9" width="12.2" height="24.65" shape-rendering="crispEdges"/><rect fill="#0d1117" x="0" y="538.3" width="268.4" height="24.65" shape-rendering="crispEdges"/><rect fill="#0d1117" x="268.4" y="538.3" width="12.2" height="24.65" shape-rendering="crispEdges"/><rect fill="#0d1117" x="280.6" y="538.3" width="12.2" height="24.65" shape-rendering="crispEdges"/><rect fill="#0d1117" x="292.8" y="538.3" width="902.8" height="24.65" shape-rendering="crispEdges"/><rect fill="#0d1117" x="1195.6" y="538.3" width="12.2" height="24.65" shape-rendering="crispEdges"/><rect fill="#0d1117" x="1207.8" y="538.3" width="12.2" height="24.65" shape-rendering="crispEdges"/><rect fill="#0d1117" x="0" y="562.7" width="268.4" height="24.65" shape-rendering="crispEdges"/><rect fill="#0d1117" x="268.4" y="562.7" width="12.2" height="24.65" shape-rendering="crispEdges"/><rect fill="#0d1117" x="280.6" y="562.7" width="12.2" height="24.65" shape-rendering="crispEdges"/><rect fill="#0d1117" x="292.8" y="562.7" width="902.8" height="24.65" shape-rendering="crispEdges"/><rect fill="#0d1117" x="1195.6" y="562.7" width="12.2" height="24.65" shape-rendering="crispEdges"/><rect fill="#0d1117" x="1207.8" y="562.7" width="12.2" height="24.65" shape-rendering="crispEdges"/><rect fill="#0d1117" x="0" y="587.1" width="268.4" height="24.65" shape-rendering="crispEdges"/><rect fill="#0d1117" x="268.4" y="587.1" width="951.6" height="24.65" shape-rendering="crispEdges"/><rect fill="#0d1117" x="0" y="611.5" width="268.4" height="24.65" shape-rendering="crispEdges"/><rect fill="#0d1117" x="268.4" y="611.5" width="951.6" height="24.65" shape-rendering="crispEdges"/><rect fill="#0d1117" x="0" y="635.9" width="268.4" height="24.65" shape-rendering="crispEdges"/><rect fill="#0d1117" x="268.4" y="635.9" width="24.4" height="24.65" shape-rendering="crispEdges"/><rect fill="#0d1117" x="292.8" y="635.9" width="390.4" height="24.65" shape-rendering="crispEdges"/><rect fill="#0d1117" x="683.2" y="635.9" width="122" height="24.65" shape-rendering="crispEdges"/><rect fill="#0d1117" x="805.2" y="635.9" width="390.4" height="24.65" shape-rendering="crispEdges"/><rect fill="#0d1117" x="1195.6" y="635.9" width="24.4" height="24.65" shape-rendering="crispEdges"/><rect fill="#0d1117" x="0" y="660.3" width="268.4" height="24.65" shape-rendering="crispEdges"/><rect fill="#0d1117" x="268.4" y="660.3" width="12.2" height="24.65" shape-rendering="crispEdges"/><rect fill="#0d1117" x="280.6" y="660.3" width="12.2" height="24.65" shape-rendering="crispEdges"/><rect fill="#0d1117" x="292.8" y="660.3" width="61" height="24.65" shape-rendering="crispEdges"/><rect fill="#0d1117" x="353.8" y="660.3" width="414.8" height="24.65" shape-rendering="crispEdges"/><rect fill="#0d1117" x="768.6" y="660.3" width="427" height="24.65" shape-rendering="crispEdges"/><rect fill="#0d1117" x="1195.6" y="660.3" width="12.2" height="24.65" shape-rendering="crispEdges"/><rect fill="#0d1117" x="1207.8" y="660.3" width="12.2" height="24.65" shape-rendering="crispEdges"/><rect fill="#0d1117" x="0" y="684.7" width="268.4" height="24.65" shape-rendering="crispEdges"/><rect fill="#0d1117" x="268.4" y="684.7" width="951.6" height="24.65" shape-rendering="crispEdges"/><rect fill="#e0e0e0" x="0" y="709.1" width="24.4" height="24.65" shape-rendering="crispEdges"/><rect fill="#e0e0e0" x="24.4" y="709.1" width="61" height="24.65" shape-rendering="crispEdges"/><rect fill="#e0e0e0" x="85.4" y="709.1" width="170.8" height="24.65" shape-rendering="crispEdges"/><rect fill="#e0e0e0" x="256.2" y="709.1" width="73.2" height="24.65" shape-rendering="crispEdges"/><rect fill="#e0e0e0" x="329.4" y="709.1" width="122" height="24.65" shape-rendering="crispEdges"/><rect fill="#e0e0e0" x="451.4" y="709.1" width="12.2" height="24.65" shape-rendering="crispEdges"/><rect fill="#e0e0e0" x="463.6" y="709.1" width="170.8" height="24.65" shape-rendering="crispEdges"/><rect fill="#e0e0e0" x="634.4" y="709.1" width="12.2" height="24.65" shape-rendering="crispEdges"/><rect fill="#e0e0e0" x="646.6" y="709.1" width="170.8" height="24.65" shape-rendering="crispEdges"/><rect fill="#e0e0e0" x="817.4" y="709.1" width="12.2" height="24.65" shape-rendering="crispEdges"/><rect fill="#e0e0e0" x="829.6" y="709.1" width="109.8" height="24.65" shape-rendering="crispEdges"/><rect fill="#0d1117" x="939.4" y="709.1" width="280.6" height="24.65" shape-rendering="crispEdges"/>
    <g class="terminal-434931138-matrix">
    <text class="terminal-434931138-r1" x="0" y="20" textLength="12.2" clip-path="url(#terminal-434931138-line-0)">┌</text><text class="terminal-434931138-r1" x="12.2" y="20" textLength="1195.6" clip-path="url(#terminal-434931138-line-0)">──────────────────────────────────────────────────────────────────────────────────────────────────</text><text class="terminal-434931138-r1" x="1207.8" y="20" textLength="12.2" clip-path="url(#terminal-434931138-line-0)">┐</text><text class="terminal-434931138-r2" x="1220" y="20" textLength="12.2" clip-path="url(#terminal-434931138-line-0)">
</text><text class="terminal-434931138-r1" x="0" y="44.4" textLength="12.2" clip-path="url(#terminal-434931138-line-1)">│</text><text class="terminal-434931138-r3" x="36.6" y="44.4" textLength="12.2" clip-path="url(#terminal-434931138-line-1)">输</text><text class="terminal-434931138-r4" x="61" y="44.4" textLength="146.4" clip-path="url(#terminal-434931138-line-1)">入品牌或话题关键词...</text><text class="terminal-434931138-r1" x="1207.8" y="44.4" textLength="12.2" clip-path="url(#terminal-434931138-line-1)">│</text><text class="terminal-434931138-r2" x="1220" y="44.4" textLength="12.2" clip-path="url(#terminal-434931138-line-1)">
</text><text class="terminal-434931138-r1" x="0" y="68.8" textLength="12.2" clip-path="url(#terminal-434931138-line-2)">└</text><text class="terminal-434931138-r1" x="12.2" y="68.8" textLength="1195.6" clip-path="url(#terminal-434931138-line-2)">──────────────────────────────────────────────────────────────────────────────────────────────────</text><text class="terminal-434931138-r1" x="1207.8" y="68.8" textLength="12.2" clip-path="url(#terminal-434931138-line-2)">┘</text><text class="terminal-434931138-r2" x="1220" y="68.8" textLength="12.2" clip-path="url(#terminal-434931138-line-2)">
</text><text class="terminal-434931138-r2" x="1220" y="93.2" textLength="12.2" clip-path="url(#terminal-434931138-line-3)">
</text><text class="terminal-434931138-r7" x="0" y="117.6" textLength="219.6" clip-path="url(#terminal-434931138-line-4)">输入关键词后按&#160;Enter&#160;开始分析</text><text class="terminal-434931138-r2" x="1220" y="117.6" textLength="12.2" clip-path="url(#terminal-434931138-line-4)">
</text><text class="terminal-434931138-r8" x="0" y="142" textLength="24.4" clip-path="url(#terminal-434931138-line-5)">╭─</text><text class="terminal-434931138-r8" x="24.4" y="142" textLength="48.8" clip-path="url(#terminal-434931138-line-5)">────</text><text class="terminal-434931138-r8" x="73.2" y="142" textLength="97.6" clip-path="url(#terminal-434931138-line-5)">&#160;Agents&#160;</text><text class="terminal-434931138-r8" x="170.8" y="142" textLength="61" clip-path="url(#terminal-434931138-line-5)">─────</text><text class="terminal-434931138-r8" x="231.8" y="142" textLength="24.4" clip-path="url(#terminal-434931138-line-5)">─╮</text><text class="terminal-434931138-r9" x="268.4" y="142" textLength="24.4" clip-path="url(#terminal-434931138-line-5)">╭─</text><text class="terminal-434931138-r9" x="292.8" y="142" textLength="378.2" clip-path="url(#terminal-434931138-line-5)">───────────────────────────────</text><text class="terminal-434931138-r9" x="671" y="142" textLength="146.4" clip-path="url(#terminal-434931138-line-5)">&#160;Forum&#160;Live&#160;</text><text class="terminal-434931138-r9" x="817.4" y="142" textLength="378.2" clip-path="url(#terminal-434931138-line-5)">───────────────────────────────</text><text class="terminal-434931138-r9" x="1195.6" y="142" textLength="24.4" clip-path="url(#terminal-434931138-line-5)">─╮</text><text class="terminal-434931138-r2" x="1220" y="142" textLength="12.2" clip-path="url(#terminal-434931138-line-5)">
</text><text class="terminal-434931138-r8" x="0" y="166.4" textLength="12.2" clip-path="url(#terminal-434931138-line-6)">│</text><text class="terminal-434931138-r10" x="36.6" y="166.4" textLength="109.8" clip-path="url(#terminal-434931138-line-6)">Collect&#160;&#160;</text><text class="terminal-434931138-r10" x="170.8" y="166.4" textLength="24.4" clip-path="url(#terminal-434931138-line-6)">完成</text><text class="terminal-434931138-r8" x="244" y="166.4" textLength="12.2" clip-path="url(#terminal-434931138-line-6)">│</text><text class="terminal-434931138-r9" x="268.4" y="166.4" textLength="12.2" clip-path="url(#terminal-434931138-line-6)">│</text><text class="terminal-434931138-r6" x="292.8" y="166.4" textLength="134.2" clip-path="url(#terminal-434931138-line-6)">[21:33:43]&#160;</text><text class="terminal-434931138-r11" x="427" y="166.4" textLength="73.2" clip-path="url(#terminal-434931138-line-6)">SYSTEM</text><text class="terminal-434931138-r6" x="500.2" y="166.4" textLength="207.4" clip-path="url(#terminal-434931138-line-6)">&#160;任务启动：开始分析&#160;&quot;小米汽车&quot;</text><text class="terminal-434931138-r9" x="1207.8" y="166.4" textLength="12.2" clip-path="url(#terminal-434931138-line-6)">│</text><text class="terminal-434931138-r2" x="1220" y="166.4" textLength="12.2" clip-path="url(#terminal-434931138-line-6)">
</text><text class="terminal-434931138-r8" x="0" y="190.8" textLength="12.2" clip-path="url(#terminal-434931138-line-7)">│</text><text class="terminal-434931138-r10" x="36.6" y="190.8" textLength="109.8" clip-path="url(#terminal-434931138-line-7)">Sentiment</text><text class="terminal-434931138-r10" x="170.8" y="190.8" textLength="24.4" clip-path="url(#terminal-434931138-line-7)">完成</text><text class="terminal-434931138-r8" x="244" y="190.8" textLength="12.2" clip-path="url(#terminal-434931138-line-7)">│</text><text class="terminal-434931138-r9" x="268.4" y="190.8" textLength="12.2" clip-path="url(#terminal-434931138-line-7)">│</text><text class="terminal-434931138-r6" x="292.8" y="190.8" textLength="134.2" clip-path="url(#terminal-434931138-line-7)">[21:33:43]&#160;</text><text class="terminal-434931138-r12" x="427" y="190.8" textLength="146.4" clip-path="url(#terminal-434931138-line-7)">CollectAgent</text><text class="terminal-434931138-r6" x="573.4" y="190.8" textLength="256.2" clip-path="url(#terminal-434931138-line-7)">&#160;我已完成数据采集（共&#160;23&#160;条，5&#160;源）</text><text class="terminal-434931138-r9" x="1207.8" y="190.8" textLength="12.2" clip-path="url(#terminal-434931138-line-7)">│</text><text class="terminal-434931138-r2" x="1220" y="190.8" textLength="12.2" clip-path="url(#terminal-434931138-line-7)">
</text><text class="terminal-434931138-r8" x="0" y="215.2" textLength="12.2" clip-path="url(#terminal-434931138-line-8)">│</text><text class="terminal-434931138-r10" x="36.6" y="215.2" textLength="109.8" clip-path="url(#terminal-434931138-line-8)">Trend&#160;&#160;&#160;&#160;</text><text class="terminal-434931138-r10" x="170.8" y="215.2" textLength="24.4" clip-path="url(#terminal-434931138-line-8)">完成</text><text class="terminal-434931138-r8" x="244" y="215.2" textLength="12.2" clip-path="url(#terminal-434931138-line-8)">│</text><text class="terminal-434931138-r9" x="268.4" y="215.2" textLength="12.2" clip-path="url(#terminal-434931138-line-8)">│</text><text class="terminal-434931138-r6" x="292.8" y="215.2" textLength="134.2" clip-path="url(#terminal-434931138-line-8)">[21:33:43]&#160;</text><text class="terminal-434931138-r9" x="427" y="215.2" textLength="170.8" clip-path="url(#terminal-434931138-line-8)">SentimentAgent</text><text class="terminal-434931138-r6" x="597.8" y="215.2" textLength="341.6" clip-path="url(#terminal-434931138-line-8)">&#160;情感分析完成：正面&#160;45%，负面&#160;32%，中性&#160;23%</text><text class="terminal-434931138-r9" x="1207.8" y="215.2" textLength="12.2" clip-path="url(#terminal-434931138-line-8)">│</text><text class="terminal-434931138-r2" x="1220" y="215.2" textLength="12.2" clip-path="url(#terminal-434931138-line-8)">
</text><text class="terminal-434931138-r8" x="0" y="239.6" textLength="12.2" clip-path="url(#terminal-434931138-line-9)">│</text><text class="terminal-434931138-r10" x="36.6" y="239.6" textLength="109.8" clip-path="url(#terminal-434931138-line-9)">Report&#160;&#160;&#160;</text><text class="terminal-434931138-r10" x="170.8" y="239.6" textLength="24.4" clip-path="url(#terminal-434931138-line-9)">完成</text><text class="terminal-434931138-r8" x="244" y="239.6" textLength="12.2" clip-path="url(#terminal-434931138-line-9)">│</text><text class="terminal-434931138-r9" x="268.4" y="239.6" textLength="12.2" clip-path="url(#terminal-434931138-line-9)">│</text><text class="terminal-434931138-r6" x="292.8" y="239.6" textLength="134.2" clip-path="url(#terminal-434931138-line-9)">[21:33:43]&#160;</text><text class="terminal-434931138-r13" x="427" y="239.6" textLength="122" clip-path="url(#terminal-434931138-line-9)">TrendAgent</text><text class="terminal-434931138-r6" x="549" y="239.6" textLength="231.8" clip-path="url(#terminal-434931138-line-9)">&#160;趋势预测：短期看涨，置信度&#160;0.72</text><text class="terminal-434931138-r9" x="1207.8" y="239.6" textLength="12.2" clip-path="url(#terminal-434931138-line-9)">│</text><text class="terminal-434931138-r2" x="1220" y="239.6" textLength="12.2" clip-path="url(#terminal-434931138-line-9)">
</text><text class="terminal-434931138-r8" x="0" y="264" textLength="256.2" clip-path="url(#terminal-434931138-line-10)">╰───────────────────╯</text><text class="terminal-434931138-r9" x="268.4" y="264" textLength="12.2" clip-path="url(#terminal-434931138-line-10)">│</text><text class="terminal-434931138-r6" x="292.8" y="264" textLength="134.2" clip-path="url(#terminal-434931138-line-10)">[21:33:43]&#160;</text><text class="terminal-434931138-r14" x="427" y="264" textLength="48.8" clip-path="url(#terminal-434931138-line-10)">HOST</text><text class="terminal-434931138-r6" x="475.8" y="264" textLength="195.2" clip-path="url(#terminal-434931138-line-10)">&#160;建议关注供应链风险和价格战动态</text><text class="terminal-434931138-r9" x="1207.8" y="264" textLength="12.2" clip-path="url(#terminal-434931138-line-10)">│</text><text class="terminal-434931138-r2" x="1220" y="264" textLength="12.2" clip-path="url(#terminal-434931138-line-10)">
</text><text class="terminal-434931138-r9" x="268.4" y="288.4" textLength="12.2" clip-path="url(#terminal-434931138-line-11)">│</text><text class="terminal-434931138-r6" x="292.8" y="288.4" textLength="134.2" clip-path="url(#terminal-434931138-line-11)">[21:33:43]&#160;</text><text class="terminal-434931138-r15" x="427" y="288.4" textLength="134.2" clip-path="url(#terminal-434931138-line-11)">ReportAgent</text><text class="terminal-434931138-r6" x="561.2" y="288.4" textLength="207.4" clip-path="url(#terminal-434931138-line-11)">&#160;最终报告已生成，包含事件因果图谱</text><text class="terminal-434931138-r9" x="1207.8" y="288.4" textLength="12.2" clip-path="url(#terminal-434931138-line-11)">│</text><text class="terminal-434931138-r2" x="1220" y="288.4" textLength="12.2" clip-path="url(#terminal-434931138-line-11)">
</text><text class="terminal-434931138-r9" x="268.4" y="312.8" textLength="12.2" clip-path="url(#terminal-434931138-line-12)">│</text><text class="terminal-434931138-r9" x="1207.8" y="312.8" textLength="12.2" clip-path="url(#terminal-434931138-line-12)">│</text><text class="terminal-434931138-r2" x="1220" y="312.8" textLength="12.2" clip-path="url(#terminal-434931138-line-12)">
</text><text class="terminal-434931138-r9" x="268.4" y="337.2" textLength="12.2" clip-path="url(#terminal-434931138-line-13)">│</text><text class="terminal-434931138-r9" x="1207.8" y="337.2" textLength="12.2" clip-path="url(#terminal-434931138-line-13)">│</text><text class="terminal-434931138-r2" x="1220" y="337.2" textLength="12.2" clip-path="url(#terminal-434931138-line-13)">
</text><text class="terminal-434931138-r9" x="268.4" y="361.6" textLength="12.2" clip-path="url(#terminal-434931138-line-14)">│</text><text class="terminal-434931138-r9" x="1207.8" y="361.6" textLength="12.2" clip-path="url(#terminal-434931138-line-14)">│</text><text class="terminal-434931138-r2" x="1220" y="361.6" textLength="12.2" clip-path="url(#terminal-434931138-line-14)">
</text><text class="terminal-434931138-r9" x="268.4" y="386" textLength="12.2" clip-path="url(#terminal-434931138-line-15)">│</text><text class="terminal-434931138-r9" x="1207.8" y="386" textLength="12.2" clip-path="url(#terminal-434931138-line-15)">│</text><text class="terminal-434931138-r2" x="1220" y="386" textLength="12.2" clip-path="url(#terminal-434931138-line-15)">
</text><text class="terminal-434931138-r9" x="268.4" y="410.4" textLength="12.2" clip-path="url(#terminal-434931138-line-16)">│</text><text class="terminal-434931138-r9" x="1207.8" y="410.4" textLength="12.2" clip-path="url(#terminal-434931138-line-16)">│</text><text class="terminal-434931138-r2" x="1220" y="410.4" textLength="12.2" clip-path="url(#terminal-434931138-line-16)">
</text><text class="terminal-434931138-r9" x="268.4" y="434.8" textLength="12.2" clip-path="url(#terminal-434931138-line-17)">│</text><text class="terminal-434931138-r9" x="1207.8" y="434.8" textLength="12.2" clip-path="url(#terminal-434931138-line-17)">│</text><text class="terminal-434931138-r2" x="1220" y="434.8" textLength="12.2" clip-path="url(#terminal-434931138-line-17)">
</text><text class="terminal-434931138-r9" x="268.4" y="459.2" textLength="12.2" clip-path="url(#terminal-434931138-line-18)">│</text><text class="terminal-434931138-r9" x="1207.8" y="459.2" textLength="12.2" clip-path="url(#terminal-434931138-line-18)">│</text><text class="terminal-434931138-r2" x="1220" y="459.2" textLength="12.2" clip-path="url(#terminal-434931138-line-18)">
</text><text class="terminal-434931138-r9" x="268.4" y="483.6" textLength="12.2" clip-path="url(#terminal-434931138-line-19)">│</text><text class="terminal-434931138-r9" x="1207.8" y="483.6" textLength="12.2" clip-path="url(#terminal-434931138-line-19)">│</text><text class="terminal-434931138-r2" x="1220" y="483.6" textLength="12.2" clip-path="url(#terminal-434931138-line-19)">
</text><text class="terminal-434931138-r9" x="268.4" y="508" textLength="12.2" clip-path="url(#terminal-434931138-line-20)">│</text><text class="terminal-434931138-r9" x="1207.8" y="508" textLength="12.2" clip-path="url(#terminal-434931138-line-20)">│</text><text class="terminal-434931138-r2" x="1220" y="508" textLength="12.2" clip-path="url(#terminal-434931138-line-20)">
</text><text class="terminal-434931138-r9" x="268.4" y="532.4" textLength="12.2" clip-path="url(#terminal-434931138-line-21)">│</text><text class="terminal-434931138-r9" x="1207.8" y="532.4" textLength="12.2" clip-path="url(#terminal-434931138-line-21)">│</text><text class="terminal-434931138-r2" x="1220" y="532.4" textLength="12.2" clip-path="url(#terminal-434931138-line-21)">
</text><text class="terminal-434931138-r9" x="268.4" y="556.8" textLength="12.2" clip-path="url(#terminal-434931138-line-22)">│</text><text class="terminal-434931138-r9" x="1207.8" y="556.8" textLength="12.2" clip-path="url(#terminal-434931138-line-22)">│</text><text class="terminal-434931138-r2" x="1220" y="556.8" textLength="12.2" clip-path="url(#terminal-434931138-line-22)">
</text><text class="terminal-434931138-r9" x="268.4" y="581.2" textLength="12.2" clip-path="url(#terminal-434931138-line-23)">│</text><text class="terminal-434931138-r9" x="1207.8" y="581.2" textLength="12.2" clip-path="url(#terminal-434931138-line-23)">│</text><text class="terminal-434931138-r2" x="1220" y="581.2" textLength="12.2" clip-path="url(#terminal-434931138-line-23)">
</text><text class="terminal-434931138-r9" x="268.4" y="605.6" textLength="951.6" clip-path="url(#terminal-434931138-line-24)">╰────────────────────────────────────────────────────────────────────────────╯</text><text class="terminal-434931138-r2" x="1220" y="605.6" textLength="12.2" clip-path="url(#terminal-434931138-line-24)">
</text><text class="terminal-434931138-r2" x="1220" y="630" textLength="12.2" clip-path="url(#terminal-434931138-line-25)">
</text><text class="terminal-434931138-r15" x="268.4" y="654.4" textLength="24.4" clip-path="url(#terminal-434931138-line-26)">╭─</text><text class="terminal-434931138-r15" x="292.8" y="654.4" textLength="390.4" clip-path="url(#terminal-434931138-line-26)">────────────────────────────────</text><text class="terminal-434931138-r15" x="683.2" y="654.4" textLength="122" clip-path="url(#terminal-434931138-line-26)">&#160;Insights&#160;</text><text class="terminal-434931138-r15" x="805.2" y="654.4" textLength="390.4" clip-path="url(#terminal-434931138-line-26)">────────────────────────────────</text><text class="terminal-434931138-r15" x="1195.6" y="654.4" textLength="24.4" clip-path="url(#terminal-434931138-line-26)">─╮</text><text class="terminal-434931138-r2" x="1220" y="654.4" textLength="12.2" clip-path="url(#terminal-434931138-line-26)">
</text><text class="terminal-434931138-r15" x="268.4" y="678.8" textLength="12.2" clip-path="url(#terminal-434931138-line-27)">│</text><text class="terminal-434931138-r16" x="292.8" y="678.8" textLength="36.6" clip-path="url(#terminal-434931138-line-27)">结论:</text><text class="terminal-434931138-r6" x="353.8" y="678.8" textLength="219.6" clip-path="url(#terminal-434931138-line-27)">&#160;市场对小米汽车的情绪偏积极（正面&#160;</text><text class="terminal-434931138-r15" x="1207.8" y="678.8" textLength="12.2" clip-path="url(#terminal-434931138-line-27)">│</text><text class="terminal-434931138-r2" x="1220" y="678.8" textLength="12.2" clip-path="url(#terminal-434931138-line-27)">
</text><text class="terminal-434931138-r15" x="268.4" y="703.2" textLength="951.6" clip-path="url(#terminal-434931138-line-28)">╰────────────────────────────────────────────────────────────────────────────╯</text><text class="terminal-434931138-r2" x="1220" y="703.2" textLength="12.2" clip-path="url(#terminal-434931138-line-28)">
</text><text class="terminal-434931138-r18" x="24.4" y="727.6" textLength="61" clip-path="url(#terminal-434931138-line-29)">Enter</text><text class="terminal-434931138-r17" x="85.4" y="727.6" textLength="122" clip-path="url(#terminal-434931138-line-29)">&#160;开始分析&#160;&#160;│&#160;&#160;</text><text class="terminal-434931138-r18" x="256.2" y="727.6" textLength="73.2" clip-path="url(#terminal-434931138-line-29)">Ctrl+C</text><text class="terminal-434931138-r17" x="329.4" y="727.6" textLength="97.6" clip-path="url(#terminal-434931138-line-29)">&#160;退出&#160;&#160;│&#160;&#160;</text><text class="terminal-434931138-r18" x="451.4" y="727.6" textLength="12.2" clip-path="url(#terminal-434931138-line-29)">G</text><text class="terminal-434931138-r17" x="463.6" y="727.6" textLength="122" clip-path="url(#terminal-434931138-line-29)">&#160;打开图谱&#160;&#160;│&#160;&#160;</text><text class="terminal-434931138-r18" x="634.4" y="727.6" textLength="12.2" clip-path="url(#terminal-434931138-line-29)">R</text><text class="terminal-434931138-r17" x="646.6" y="727.6" textLength="122" clip-path="url(#terminal-434931138-line-29)">&#160;查看报告&#160;&#160;│&#160;&#160;</text><text class="terminal-434931138-r18" x="817.4" y="727.6" textLength="12.2" clip-path="url(#terminal-434931138-line-29)">Q</text><text class="terminal-434931138-r17" x="829.6" y="727.6" textLength="85.4" clip-path="url(#terminal-434931138-line-29)">&#160;追问AI&#160;&#160;</text>
    </g>
    </g>
</svg>
